<svg version="1.1" id="Layer_1" xmlns="http://www.w3.org/2000/svg" xmlns:xlink="http://www.w3.org/1999/xlink" x="0px" y="0px"
	 width="100%" viewBox="0 0 240 240" enable-background="new 0 0 240 240" xml:space="preserve">
<path fill="#000000" opacity="1.000000" stroke="none" 
	d="
M192.004517,144.160263 
	C187.642776,136.358017 185.083389,127.983444 179.130157,121.088203 
	C182.888916,120.223259 186.595703,120.678543 190.328613,120.844574 
	C188.706146,127.996574 194.232895,132.218277 196.782867,137.821045 
	C199.004166,132.365479 203.139862,127.699615 202.111771,121.165413 
	C204.051559,120.346107 206.078323,120.366882 208.178619,121.222908 
	C202.466431,128.305298 200.735291,137.124100 196.984177,144.992096 
	C195.482269,148.142365 194.268860,151.429108 192.881989,154.635513 
	C191.018738,158.943314 188.211502,161.953568 181.530045,161.250977 
	C185.890808,163.661942 184.614929,165.628906 183.051956,167.812698 
	C170.026535,186.011688 152.540283,197.248779 130.538742,201.235214 
	C89.850052,208.607529 51.584862,185.868103 38.502487,146.240326 
	C31.153358,123.979111 33.374844,102.306221 44.515499,81.639572 
	C45.573368,79.677162 46.106346,76.335625 49.791107,78.115913 
	C53.684738,79.997131 51.464436,82.410240 50.306423,84.704895 
	C35.515560,114.013680 37.624657,142.117523 57.654682,168.067444 
	C87.273033,206.439575 148.237732,204.797867 176.562607,165.400726 
	C178.726303,162.391220 179.677048,159.809128 177.700043,156.374146 
	C176.778488,154.772964 175.697388,152.907486 176.723099,150.288391 
	C179.881546,153.585678 182.140854,159.185440 187.818253,155.562408 
	C191.692337,153.090118 193.948837,149.456955 192.004517,144.160263 
z"/>
<path fill="#000000" opacity="1.000000" stroke="none" 
	d="
M83.626801,133.085785 
	C82.588165,125.068192 86.543533,120.077019 94.127869,119.716309 
	C96.581345,119.599632 98.498352,118.718246 100.571762,117.550011 
	C106.183029,114.388390 110.251518,116.946678 110.762970,124.071686 
	C107.665588,122.657829 105.794281,118.031799 101.342239,120.426445 
	C109.138138,129.134659 109.033592,134.170517 100.682480,140.727295 
	C105.537392,141.686172 108.857056,144.201385 108.912964,149.154251 
	C108.973091,154.481277 106.097000,158.179184 101.356873,160.505341 
	C96.986496,162.650055 92.363441,162.912308 87.728264,162.030487 
	C82.494987,161.034897 79.570366,156.107193 81.344688,151.083115 
	C82.261459,148.487198 83.040665,146.199585 81.922058,143.474701 
	C81.256355,141.853073 81.786446,140.039078 83.105247,138.889877 
	C85.084381,137.165268 84.389709,135.362793 83.626801,133.085785 
M106.520325,151.067871 
	C106.876884,148.127594 105.226959,147.124741 102.659706,147.316238 
	C99.037178,147.586456 95.419640,147.968872 91.815910,148.428391 
	C89.716354,148.696121 86.753197,147.465530 86.168045,150.898987 
	C85.621979,154.103119 87.294678,156.262421 90.089287,157.671448 
	C96.332787,160.819382 102.530617,158.568695 106.520325,151.067871 
M99.766182,129.772934 
	C99.264221,126.130074 98.765800,121.442848 94.223389,121.913216 
	C90.092300,122.340988 90.153641,127.051559 90.502014,130.469986 
	C90.861969,134.002045 91.283760,138.748596 95.957428,138.521576 
	C100.212738,138.314850 99.533440,133.798889 99.766182,129.772934 
M86.217270,142.602280 
	C87.791557,142.709702 89.460632,143.182571 90.793259,141.274658 
	C89.049667,140.320175 87.551247,138.761002 85.469856,139.958099 
	C84.412590,140.566177 84.725746,141.623291 86.217270,142.602280 
z"/>
<path fill="#000000" opacity="1.000000" stroke="none" 
	d="
M152.714081,125.453842 
	C151.137970,127.298805 149.880920,128.955276 148.358261,130.961731 
	C146.984802,128.333832 147.918167,126.449142 149.176575,124.722740 
	C151.906204,120.978020 158.935196,119.437202 164.339050,121.270035 
	C169.266891,122.941406 171.440613,126.417946 171.293961,131.547363 
	C171.203568,134.708679 171.185577,137.878174 171.309250,141.037170 
	C171.382645,142.911636 170.506256,145.326859 172.954941,146.315781 
	C175.324783,147.272888 175.314026,143.884399 177.141617,143.580185 
	C177.668121,148.575409 172.521133,151.537582 167.441147,148.623535 
	C164.672119,147.035126 163.036606,147.315628 160.418808,148.642517 
	C155.533722,151.118652 148.864944,148.631729 147.140900,144.241165 
	C144.914413,138.571136 147.619995,133.841339 153.966904,131.516922 
	C157.256363,130.312225 160.470856,130.957275 163.689041,131.157501 
	C164.659439,125.017914 160.887756,123.029015 152.714081,125.453842 
M153.330780,137.929535 
	C153.527100,144.347473 156.957932,147.186966 161.307312,144.539398 
	C164.478058,142.609283 164.879150,139.582214 164.600952,136.287277 
	C164.378464,133.652206 162.185104,133.289703 160.305389,132.890152 
	C156.758194,132.136185 154.714432,134.111923 153.330780,137.929535 
z"/>
<path fill="#000000" opacity="1.000000" stroke="none" 
	d="
M116.715843,137.859558 
	C116.720238,134.225311 116.699997,131.068176 116.736229,127.911682 
	C116.765038,125.401169 116.882408,122.883827 113.010643,121.427879 
	C117.004036,120.304947 119.849228,120.542168 123.345886,121.129372 
	C123.345886,127.241135 123.321602,133.333771 123.355453,139.426071 
	C123.374229,142.805756 123.188049,146.716446 128.028748,146.576859 
	C132.335846,146.452637 133.825760,143.376678 133.723160,139.327896 
	C133.639008,136.007141 133.716019,132.682373 133.715408,129.359390 
	C133.714874,126.409943 134.106491,123.344139 130.505112,121.348236 
	C139.831467,119.647087 140.347229,120.052269 140.332550,128.212509 
	C140.325089,132.366241 140.370865,136.520508 140.317383,140.673569 
	C140.279373,143.625412 140.295486,146.482635 144.261353,147.141205 
	C142.801376,148.893250 141.096313,148.774017 139.805069,148.647232 
	C135.528336,148.227310 131.401108,148.730469 127.151703,149.240524 
	C118.990791,150.220078 116.805199,147.610260 116.715843,137.859558 
z"/>
<path fill="#000000" opacity="1.000000" stroke="none" 
	d="
M154.328568,50.197628 
	C155.406189,48.171093 156.305283,46.435917 157.151215,44.803360 
	C161.085556,45.045231 160.067581,48.519127 161.564056,50.693089 
	C162.775177,47.883087 164.315262,46.819302 166.485855,50.136162 
	C164.565826,52.937645 162.565521,55.856285 160.457458,58.932129 
	C157.364899,57.294544 154.550903,55.804470 151.786209,54.340500 
	C151.794159,52.337547 153.706299,51.881363 154.328568,50.197628 
z"/>
<path fill="#000000" opacity="1.000000" stroke="none" 
	d="
M79.243637,47.145218 
	C79.954559,48.643066 80.618225,49.792610 81.199211,50.982521 
	C81.893120,52.403717 83.733665,53.712193 82.581009,55.424492 
	C81.280479,57.356449 79.285622,56.133492 77.183151,55.607597 
	C77.907730,57.997894 77.898315,59.957245 74.543625,60.180927 
	C73.023872,57.177418 71.675667,53.807224 67.920540,51.006660 
	C68.901512,50.520153 69.515022,50.244457 70.101418,49.919788 
	C71.970032,48.885185 75.355698,50.604904 75.720116,46.572968 
	C75.791069,45.787983 78.114258,44.512272 79.243637,47.145218 
z"/>
<path fill="#000000" opacity="1.000000" stroke="none" 
	d="
M87.272308,50.710686 
	C86.289459,47.762058 85.345558,45.146641 84.327286,42.325161 
	C85.471519,41.821098 86.489212,41.290302 87.561615,40.916420 
	C90.342903,39.946747 93.092545,39.537025 95.340546,42.082706 
	C97.051117,44.019783 97.418739,46.238853 96.188934,48.524380 
	C94.490181,51.681435 91.267525,52.115921 88.172775,52.616669 
	C87.975594,52.648575 87.602509,51.593369 87.272308,50.710686 
M89.604301,46.054058 
	C90.192078,47.034443 90.331543,49.115944 92.077988,47.895576 
	C93.415611,46.960876 93.096893,45.118324 91.894279,44.091793 
	C90.358788,42.781128 89.637917,43.793034 89.604301,46.054058 
z"/>
<path fill="#000000" opacity="1.000000" stroke="none" 
	d="
M138.786438,45.849945 
	C139.870758,40.580929 142.976715,38.217545 148.736771,37.929920 
	C149.403458,42.640167 153.023590,48.188332 145.775238,50.830719 
	C142.138580,52.156464 139.839905,49.774933 138.786438,45.849945 
M145.283722,42.579468 
	C144.384338,42.441341 143.663696,42.753036 143.223816,43.536980 
	C142.490524,44.843803 141.796906,46.235374 143.024963,47.577400 
	C143.379730,47.965092 144.249130,48.239311 144.732086,48.087315 
	C146.387817,47.566216 146.882919,46.177742 146.692337,44.589069 
	C146.621246,43.996254 146.153564,43.451004 145.283722,42.579468 
z"/>
<path fill="#000000" opacity="1.000000" stroke="none" 
	d="
M63.206268,55.131516 
	C66.092758,56.489197 67.386482,59.031364 68.832985,61.369274 
	C70.172028,63.533516 69.438072,65.531906 67.502045,67.056725 
	C65.620422,68.538704 63.645630,69.019928 61.671410,67.215065 
	C59.859474,65.558578 58.089546,63.856125 56.348419,62.218426 
	C56.535378,60.529129 57.609219,59.852783 59.170284,59.232616 
	C61.376732,60.641094 61.644283,64.727303 65.534721,64.597252 
	C66.514938,61.802647 64.320229,60.583920 62.890064,59.343582 
	C61.081345,57.774940 60.540558,56.628941 63.206268,55.131516 
z"/>
<path fill="#000000" opacity="1.000000" stroke="none" 
	d="
M109.982956,47.299294 
	C108.187019,47.412872 107.159462,46.729317 106.446205,44.670525 
	C105.535202,47.765614 104.294495,49.216785 101.299637,47.663822 
	C102.743805,44.103283 102.043594,39.815071 104.931381,36.211628 
	C108.921791,38.449303 109.758438,42.655586 112.105064,45.649120 
	C112.856636,46.607880 111.314949,47.119095 109.982956,47.299294 
z"/>
<path fill="#000000" opacity="1.000000" stroke="none" 
	d="
M118.756531,35.436764 
	C121.635216,34.589073 123.836708,34.682072 125.397316,37.355194 
	C123.305862,39.221390 119.207207,35.875267 119.038467,40.554409 
	C118.902420,44.327003 121.457245,44.724796 124.524666,45.052620 
	C121.638596,47.256138 119.028160,47.610641 116.568489,44.816307 
	C113.975807,41.870869 114.610382,38.852009 118.756531,35.436764 
z"/>
<path fill="#000000" opacity="1.000000" stroke="none" 
	d="
M49.773994,68.915863 
	C51.913815,66.003807 53.093563,65.583466 55.313984,68.938599 
	C56.610947,70.898346 56.178848,73.589729 58.654228,75.156509 
	C59.974949,75.992447 58.211174,77.675491 56.534943,78.596558 
	C54.622616,76.691528 52.741161,74.522072 50.170338,73.419182 
	C47.376297,72.220535 48.449833,70.786377 49.773994,68.915863 
z"/>
<path fill="#000000" opacity="1.000000" stroke="none" 
	d="
M130.077972,43.784233 
	C130.408661,42.130211 130.787018,40.833233 130.791046,39.535095 
	C130.801361,36.204521 132.525757,36.154701 135.019394,37.142544 
	C135.528824,39.068222 134.095642,40.577549 133.970123,42.345398 
	C133.844879,44.109158 133.533478,45.859695 133.271210,47.864250 
	C130.583649,47.944054 128.553268,47.673813 130.077972,43.784233 
z"/>
</svg>